<svg width="8" height="9" viewBox="0 0 8 9" fill="none" xmlns="http://www.w3.org/2000/svg">
<path d="M6.97756 0.442697V1.61716C5.87986 1.27813 5.14934 1.10541 4.27425 1.10541C3.16631 1.10541 2.04302 1.38176 2.04302 2.3221C2.04302 2.94899 2.5778 3.30082 3.28273 3.49656L5.4372 4.11066C6.48117 4.39852 7.34218 5.03821 7.34218 6.33037C7.34218 7.90912 6.02443 8.79701 3.73819 8.79701C2.69351 8.79565 1.6581 8.60089 0.684326 8.22257V6.98413C1.67584 7.30909 2.61618 7.67499 3.73819 7.67499C5.16213 7.67499 6.07433 7.16325 6.07433 6.37003C6.07433 5.67789 5.54083 5.32479 4.81159 5.13032L2.8132 4.58147C1.72957 4.29489 0.800749 3.68591 0.800749 2.32338C0.800749 0.660191 2.38205 1.68801e-05 4.27425 1.68801e-05C5.19355 -0.001829 6.10687 0.147727 6.97756 0.442697Z" fill="black"/>
</svg>
