<svg width="71" height="188" viewBox="0 0 71 188" fill="none" xmlns="http://www.w3.org/2000/svg">
<path d="M70.1735 185.55C70.1735 187.774 70.1735 187.774 67.9346 187.774H65.6956C65.6956 187.774 52.2619 187.774 29.8724 187.774C25.3946 187.774 20.9166 187.774 16.4387 187.774C14.1998 187.774 9.7219 187.774 5.24401 187.774C3.00506 187.774 0.766113 187.774 0.766113 185.55C0.766113 183.325 3.00507 183.325 7.48296 183.325C14.1998 183.325 18.6777 183.325 20.9166 181.1C23.1556 178.875 23.1556 174.426 23.1556 165.527V23.1441C23.1556 14.2451 23.1556 9.79566 20.9166 7.57093C20.9166 5.3462 14.1998 5.3462 5.24401 5.3462C0.766109 5.3462 0.766113 5.3462 0.766113 3.12146C0.766113 0.896729 0.766111 0.896729 3.00506 0.896729H38.8282C41.0672 0.896729 47.784 0.896729 54.5009 0.896729H65.6956C67.9346 0.896729 70.1735 0.896729 70.1735 3.12146C70.1735 5.3462 65.6956 5.3462 58.9788 5.3462C54.5009 5.3462 52.2619 5.3462 50.023 7.57093C50.023 9.79566 47.784 12.0204 47.784 18.6946V161.078C47.784 172.201 47.784 176.651 50.023 176.651C52.2619 178.875 56.7398 178.875 67.9346 181.1C67.9346 183.325 70.1735 183.325 70.1735 185.55Z" fill="#6ACCC9"/>
</svg>
