<svg width="139" height="188" viewBox="0 0 139 188" fill="none" xmlns="http://www.w3.org/2000/svg">
<path d="M138.942 47.6161C138.942 49.8409 138.942 52.0656 136.703 52.0656C134.464 52.0656 132.225 47.6161 132.225 43.1667C129.986 29.8183 125.508 20.9193 118.791 14.2451C114.313 12.0204 107.596 9.79566 98.6406 7.57093C96.4017 7.57093 87.4459 7.57093 76.2511 7.57093C67.2953 7.57093 58.3395 7.57093 47.1448 7.57093V87.6613C69.5343 87.6613 85.2069 85.4366 89.6848 83.2119C94.1627 80.9871 98.6406 72.0882 98.6406 56.5151C98.6406 52.0656 100.88 49.8409 100.88 49.8409C100.88 49.8409 103.119 52.0656 103.119 54.2903C103.119 56.5151 103.119 56.5151 103.119 58.7398C103.119 72.0882 103.119 83.2119 103.119 92.1108C103.119 105.459 103.119 116.583 103.119 123.257V125.482C103.119 127.707 103.119 127.707 100.88 127.707C98.6406 127.707 98.6406 127.707 98.6406 125.482C98.6406 125.482 98.6406 121.032 96.4017 112.133C98.6406 105.459 94.1627 98.785 91.9238 96.5603C89.6848 94.3355 78.4901 92.1108 65.0564 92.1108C58.3396 92.1108 51.6227 92.1108 47.1448 92.1108V118.808V172.201C47.1448 176.651 49.3838 181.1 53.8617 181.1C56.1006 181.1 60.5785 181.1 67.2953 181.1C69.5343 181.1 71.7732 181.1 71.7732 183.325C71.7732 185.55 69.5343 185.55 67.2953 185.55H62.8174C60.5785 185.55 56.1006 185.55 51.6227 185.55C47.1448 185.55 44.9059 185.55 42.6669 185.55H4.60479C2.36584 187.774 0.126892 187.774 0.126892 185.55C0.126892 183.325 2.36584 183.325 9.08269 183.325C15.7995 183.325 18.0385 181.1 20.2774 181.1C20.2774 178.875 22.5164 174.426 22.5164 167.752V14.2451C22.5164 12.0204 20.2774 9.79566 20.2774 7.57093C18.0385 7.57093 13.5606 5.3462 6.84374 5.3462C2.36584 7.57093 0.126892 5.3462 0.126892 5.3462C0.126892 3.12146 2.36584 3.12146 4.60479 3.12146H9.08269C9.08269 3.12146 18.0385 3.12146 35.9501 3.12146C53.8617 3.12146 67.2953 3.12146 78.4901 3.12146C109.835 3.12146 127.747 3.12146 134.464 0.896729C134.464 3.12146 134.464 9.79566 136.703 20.9193C136.703 27.5935 138.942 34.2677 138.942 40.9419C138.942 43.1667 138.942 45.3914 138.942 47.6161Z" fill="#6ACCC9"/>
</svg>
