<svg width="185" height="190" viewBox="0 0 185 190" fill="none" xmlns="http://www.w3.org/2000/svg">
<path d="M184.138 187.55C184.138 189.775 181.899 189.775 179.66 189.775C177.421 189.775 175.182 189.775 175.182 189.775H141.598H108.014C105.775 189.775 105.775 189.775 103.536 189.775C99.058 189.775 99.058 189.775 99.058 187.55C99.058 185.326 101.297 185.326 105.775 185.326C121.447 185.326 130.403 183.101 130.403 180.876C130.403 180.876 130.403 180.876 130.403 178.651L128.164 171.977L125.925 167.528C123.686 163.078 121.447 149.73 114.731 131.932H56.518C45.3232 160.853 40.8453 176.427 40.8453 180.876C40.8453 183.101 40.8453 185.326 43.0843 185.326C43.0843 185.326 47.5622 185.326 56.518 185.326C60.9959 185.326 63.2348 185.326 63.2348 187.55C63.2348 189.775 60.9959 189.775 56.518 189.775C47.5622 189.775 38.6063 189.775 27.4116 189.775C25.1727 189.775 22.9337 189.775 18.4558 189.775C16.2169 189.775 11.739 189.775 9.50004 189.775C7.26109 189.775 7.26107 189.775 5.02212 189.775C2.78317 189.775 0.54425 189.775 0.54425 187.55C0.54425 185.326 2.78319 185.326 9.50004 185.326C16.2169 185.326 18.4558 185.326 20.6948 183.101C22.9337 180.876 25.1727 178.651 27.4116 174.202C49.8011 107.46 69.9516 56.291 83.3853 16.2457C83.3853 14.021 85.6243 11.7963 85.6243 9.57154L87.8632 5.12208C92.3411 0.672607 92.3411 0.672607 92.3411 0.672607C92.3411 0.672607 92.3411 0.672607 94.5801 2.89734C96.819 9.57154 101.297 25.1447 110.253 47.392C116.97 65.1899 132.642 107.46 157.271 176.427C159.51 180.876 159.51 183.101 161.749 183.101C163.987 183.101 168.465 185.326 175.182 185.326C181.899 185.326 184.138 185.326 184.138 187.55ZM112.492 123.033C110.253 114.134 105.775 100.786 99.058 82.9878L85.6243 45.1673C78.9074 65.1899 69.9517 89.662 58.7569 123.033H112.492Z" fill="#6ACCC9"/>
</svg>
