<svg width="171" height="192" viewBox="0 0 171 192" fill="none" xmlns="http://www.w3.org/2000/svg">
<path d="M171 98.5609C171 125.258 162.044 147.505 146.371 165.303C130.699 183.101 110.548 192 88.1589 192C63.5304 192 43.3799 183.101 25.4683 163.078C7.55674 143.056 0.839844 120.808 0.839844 94.1114C0.839844 67.4146 9.79569 42.9426 25.4683 25.1447C41.141 7.34681 61.2914 0.672607 85.9199 0.672607C110.548 0.672607 130.699 9.57154 146.371 27.3694C162.044 47.392 171 69.6394 171 98.5609ZM139.655 98.5609C139.655 67.4146 132.938 40.7178 119.504 22.9199C110.548 11.7963 99.3536 5.12208 83.6809 5.12208C70.2473 5.12208 59.0525 9.57154 50.0967 18.4705C36.663 34.0436 27.7072 60.7404 27.7072 96.3362C27.7072 125.258 32.1852 147.505 43.3799 163.078C54.5746 178.651 68.0083 187.55 85.9199 187.55C103.831 187.55 115.026 180.876 123.982 165.303C135.177 149.73 139.655 127.482 139.655 98.5609Z" fill="#6ACCC9"/>
</svg>
