<svg width="155" height="187" viewBox="0 0 155 187" fill="none" xmlns="http://www.w3.org/2000/svg">
<path d="M154.775 175.876C154.775 182.551 148.059 187 136.864 187C123.43 187 112.235 180.326 103.28 169.202C98.8017 164.753 96.5627 160.303 96.5627 155.854C96.5627 151.404 94.3238 140.281 92.0848 120.258C92.0848 109.134 87.6069 100.235 80.8901 95.7859C74.1732 91.3364 65.2175 89.1117 49.5448 89.1117V173.652C49.5448 178.101 51.7837 180.326 58.5006 180.326C60.7395 180.326 65.2175 180.326 71.9343 180.326C74.1733 180.326 76.4122 180.326 76.4122 182.55C76.4122 184.775 74.1733 184.775 71.9343 184.775H69.6953C67.4564 184.775 60.7395 184.775 47.3058 184.775C45.0669 184.775 40.589 184.775 33.8722 184.775C27.1553 184.775 22.6774 184.775 20.4385 184.775H9.24375C4.76585 184.775 2.52688 184.775 2.52688 182.55C2.52688 180.326 4.76585 180.326 9.24375 180.326C18.1995 180.326 22.6774 178.101 22.6774 178.101C22.6774 178.101 22.6774 173.652 22.6774 166.977V20.1449C22.6774 13.4707 22.6774 9.02125 20.4385 6.79652C18.1995 4.57178 13.7216 4.57178 7.00479 4.57178C2.5269 4.57178 0.287964 4.57178 0.287964 2.34705C0.287964 0.122315 2.52689 0.122314 4.76583 0.122314H7.00479H42.8279C47.3058 0.122314 51.7837 0.122314 58.5006 0.122314C65.2174 0.122314 69.6953 0.122314 74.1732 0.122314C89.8459 0.122314 103.28 4.57178 114.474 11.246C125.669 17.9202 130.147 29.0439 130.147 40.1675C130.147 53.5159 125.669 62.4149 114.474 71.3138C103.28 80.2127 89.8459 84.6622 71.9343 84.6622C69.6954 84.6622 69.6953 84.6622 69.6953 84.6622C69.6953 84.6622 69.6954 84.6622 71.9343 84.6622C89.8459 86.8869 103.28 93.5611 109.996 104.685C116.713 115.808 121.191 131.382 123.43 158.078C125.669 173.652 130.147 180.326 139.103 180.326C141.342 180.326 143.581 180.326 143.581 178.101C143.581 175.876 141.342 173.652 141.342 173.652C141.342 169.202 143.581 166.977 148.059 166.977C152.536 169.202 154.775 171.427 154.775 175.876ZM98.8016 42.3923C98.8016 17.9202 87.6069 4.57178 65.2174 4.57178C58.5006 4.57178 56.2616 4.57178 54.0227 6.79652C51.7837 9.02125 51.7838 11.246 51.7838 15.6955V82.4375C69.6953 82.4375 80.8901 80.2127 89.8459 73.5385C94.3238 66.8643 98.8016 57.9654 98.8016 42.3923Z" fill="#6ACCC9"/>
</svg>
