<svg width="174" height="192" viewBox="0 0 174 192" fill="none" xmlns="http://www.w3.org/2000/svg">
<path d="M173.351 134.157C173.351 136.381 173.351 136.381 171.112 136.381H164.395C155.439 136.381 150.961 136.381 150.961 140.831C150.961 143.056 150.961 149.73 150.961 163.078V171.977C142.005 180.876 133.05 185.326 124.094 187.55C115.138 192 103.943 192 92.7486 192C63.6423 192 41.2528 183.101 25.5802 167.528C9.90752 149.73 0.951721 127.482 0.951721 98.5609C0.951721 69.6394 9.90752 45.1673 25.5802 27.3694C41.2528 9.57154 63.6423 0.672607 90.5097 0.672607C101.704 0.672607 115.138 2.89734 128.572 9.57154C133.05 11.7963 135.289 11.7963 139.767 11.7963C144.244 11.7963 146.483 9.57154 146.483 5.12208C146.483 2.89734 148.722 0.672607 148.722 0.672607C150.961 0.672607 150.961 0.672607 150.961 2.89734C150.961 2.89734 150.961 5.12208 150.961 9.57154C150.961 20.6952 148.722 27.3694 148.722 31.8189V49.6167C148.722 56.291 148.722 58.5157 148.722 58.5157C148.722 62.9651 146.483 65.1899 144.244 65.1899C142.005 65.1899 142.005 62.9652 142.005 60.7404C142.005 42.9426 135.289 29.5941 126.333 20.6952C117.377 11.7963 106.182 5.12208 90.5097 5.12208C72.5981 5.12208 56.9254 14.021 45.7307 29.5941C34.5359 45.1673 30.0581 69.6394 30.0581 96.3362C30.0581 123.033 34.5359 145.28 45.7307 160.853C56.9254 176.427 72.5981 185.326 90.5097 185.326C103.943 185.326 115.138 180.876 119.616 174.202C121.855 169.752 124.094 163.078 124.094 151.954C124.094 143.056 124.094 138.606 121.855 136.381C119.616 134.157 115.138 134.157 103.943 134.157C101.704 134.157 99.4654 134.157 99.4654 134.157C99.4654 134.157 99.4654 134.157 99.4654 131.932C99.4654 129.707 101.704 129.707 106.182 129.707H110.66C112.899 129.707 121.855 129.707 139.767 129.707H162.156C164.395 129.707 164.395 129.707 166.634 129.707C168.873 129.707 168.873 129.707 168.873 129.707C171.112 131.932 173.351 131.932 173.351 134.157Z" fill="#6ACCC9"/>
</svg>
