<svg width="8" height="10" viewBox="0 0 8 10" fill="none" xmlns="http://www.w3.org/2000/svg">
<path d="M4.27465 0.622986C5.8035 0.622986 7.29013 1.1181 7.29013 2.71092C7.29013 3.70372 6.76943 4.3434 5.99797 4.66837V4.68244C6.79502 4.93831 7.57927 5.55625 7.57927 6.82411C7.57927 8.62547 5.98773 9.10779 3.96248 9.10779H0.604126V0.622986H4.27465ZM1.83105 4.2257H3.99831C5.25209 4.2257 6.00948 3.83421 6.00948 2.91946C6.00948 1.83583 4.90026 1.745 3.99831 1.745H1.83105V4.2257ZM1.83105 7.98578H3.89084C5.22267 7.98578 6.2935 7.79003 6.2935 6.67954C6.2935 5.70082 5.39154 5.30933 3.94201 5.30933H1.83105V7.98578Z" fill="black"/>
</svg>
